/* XPM */
static char *_782dd3ad22840a2b2f4a607ccadf14aAmgAvvvzwbHlVyoO[] = {
/* columns rows colors chars-per-pixel */
"32 32 148 2 ",
"   c None",
".  c #773A7F",
"X  c #7C3D7B",
"o  c #7F4077",
"O  c #BB6D34",
"+  c #B2673E",
"@  c #B4683D",
"#  c #B96B39",
"$  c #CD7B1F",
"%  c #D27D14",
"&  c #C67627",
"*  c #CD7B24",
"=  c #C3732D",
"-  c #CA7A2E",
";  c #C37333",
":  c #C67933",
">  c #944F5F",
",  c #9D5755",
"<  c #9E5853",
"1  c #96515E",
"2  c #9A555A",
"3  c #99595B",
"4  c #A55D4C",
"5  c #AA5F4B",
"6  c #A15A52",
"7  c #AB6146",
"8  c #AC624A",
"9  c #B06643",
"0  c #8C4A66",
"q  c #87466D",
"w  c #8C4A6B",
"e  c #914E62",
"r  c #8F5066",
"t  c #905265",
"y  c #834374",
"u  c #804279",
"i  c #AD5F73",
"p  c #B05D76",
"a  c #B7656F",
"s  c #BB666E",
"d  c #BD696D",
"f  c #B26272",
"g  c #B86370",
"h  c #C86E67",
"j  c #C46D6A",
"k  c #CB7466",
"l  c #CE7964",
"z  c #D47C62",
"x  c #DA7E60",
"c  c #DD860F",
"v  c #DE890D",
"b  c #DA8413",
"n  c #DF8811",
"m  c #D5811A",
"M  c #E78F05",
"N  c #E88F03",
"B  c #E38C0B",
"V  c #ED9301",
"C  c #EE9708",
"Z  c #F19602",
"A  c #F49A01",
"S  c #FA9E00",
"D  c #F4A001",
"F  c #FFA400",
"G  c #FFAB00",
"H  c #FFB100",
"J  c #FFBE00",
"K  c #D68321",
"L  c #DA8921",
"P  c #FFC200",
"I  c #FFC800",
"U  c #DF835E",
"Y  c #EC8F57",
"T  c #E2865D",
"R  c #E78B59",
"E  c #E98E58",
"W  c #DD8060",
"Q  c #3D0FA6",
"!  c #360BAF",
"~  c #380CAE",
"^  c #2E04BA",
"/  c #3D0EBD",
"(  c #3F10BB",
")  c #46179E",
"_  c #4A179E",
"`  c #4C1B9C",
"'  c #521E9A",
"]  c #5E298B",
"[  c #562296",
"{  c #5A2595",
"}  c #542198",
"|  c #5B259B",
" . c #5F2899",
".. c #682F8F",
"X. c #6C318C",
"o. c #723686",
"O. c #763981",
"+. c #7B3C84",
"@. c #71348A",
"#. c #76398B",
"$. c #79388B",
"%. c #652C92",
"&. c #692F91",
"*. c #622998",
"=. c #6B3090",
"-. c #4214A1",
";. c #4F1BA6",
":. c #4B17AD",
">. c #4D1AAB",
",. c #521EA5",
"<. c #501CA9",
"1. c #4715B2",
"2. c #4715B1",
"3. c #4313B6",
"4. c #4514B5",
"5. c #4614B4",
"6. c #4917B1",
"7. c #4A18B0",
"8. c #4212B8",
"9. c #4212B8",
"0. c #5520A3",
"q. c #5520A5",
"w. c #5520A2",
"e. c #5823A0",
"r. c #5A23A1",
"t. c #1E00DB",
"y. c #3507C7",
"u. c #3507C7",
"i. c #3609C3",
"p. c #370AC3",
"a. c #3608C5",
"s. c #3508C6",
"d. c #3509C6",
"f. c #3A0CC0",
"g. c #3A0BC1",
"h. c #3105CA",
"j. c #3206CA",
"k. c #3507C8",
"l. c #2100D7",
"z. c #803D89",
"x. c #834185",
"c. c #834186",
"v. c #854285",
"b. c #874484",
"n. c #8D4782",
"m. c #8C4781",
"M. c #8F4A80",
"N. c #904A80",
/* pixels */
"                          z j s s j l                           ",
"                    g c.%.} ` ` ` ` } X.b.d                     ",
"                i %.-.` { %.%...%.%.%.{ ` ) %.f                 ",
"            T @.-.[ =.X.r.>.*...X.| :. .X.%.} -.#.R             ",
"          l ' ;.X.=.%. .y 3 o. . .X 3 O. .%.=.=.-.} W           ",
"        l -.[ ..e.<.;.h.# P X.i.j.2 I w j.<.;.| =.} -.x         ",
"      R ' { | >.o.q , < $ C # 4 4 & C O , , 0 X.>.%.[ } Y       ",
"      &.~ :.X.; A H F H V % F G G A % S G G G V 8 q.%._ $.      ",
"    p ) o.O.n G M 8 2 o = A 2 X . 7 D 5 y 2 & S G 8 >.%.-.s     ",
"    2.0 H Z A m  .3.>.s.7 G X./ g.> H y d.>.3.9 F n *.*.} =.    ",
"  s ! y : n S e 3.X.%.<.@ F o } ,.< G t <.X.7.O.G F O.,.%._ j   ",
"  c.[ ,.l.; G q q.%.%.;.@ F X 0.<., F e >...| o.- - o.| X.` n.  ",
"  %.,.. 7 m F 1 ( %.%.<.@ F X ,.<.< F t <.X.X.%.,.,.%.X.%.[ =.  ",
"z } 2.2 P S V b X.1.>.k.7 G X./ d.e H y d.<.:.,. .%.%.%.%.%.{ W ",
"j ` *.o.q t V F M @ 6 e & Z 7 r e O A @ e 2 e y } <.X.%.%.%.' k ",
"g ` X. .:.3.y K D G G H Z m F H H A % S H G F F K #.7.| %.%.` j ",
"s ` %.%.%.X.<.} u t 6 < * C @ < , = C O , 8 # V F B &.*...%.` j ",
"j ` ..%.=.| e.| w.>.<.k.7 F X.i.d.e G y j.q.4.X.n Z V F q >.} k ",
"x } %.%.%.X.o.X.%...%.;.@ G o q.;., F t <.%.%.( 4 D v L u ,.{ U ",
"  %.{ %.q.= G 6 >...%.;.+ F o q.;.< G e ;.=.%.;.1 H , t. .{ X.  ",
"  b.` %.w.* H 6 6.X.%.<.@ F o q.q.3 G t <...X.2.< F O o o.-.N.  ",
"  d ) %.<.; F * 6.:.| 6.@ F . >.6.2 G 0 4.| 4.w.m V F J w ^ k   ",
"    %.[ <.e F A ; O.&.6.+ F X >.2.2 G 0 :.o.y * F M , 6 %.*.    ",
"    g -.%.<.@ F F F M b b v b m m b v b B Z F G S q / :.Q h     ",
"      #._ %.>.w ; b V D V b A A A V b V A B * 7 o.>.=.) z.      ",
"      Y ' } =.>.;.%.X.*.O F w %.*.8 F ,  .%.| >.w.X.' {         ",
"        x ) } X.%. .r.f.O J O./ / , P 0 /  .%.%.X.` ' T         ",
"          x ' ;.%.X.%. .X 0 X.%.*.. t o. .%.%.%.) { W           ",
"            E #.-.} %.X.| :.%.=.X.{ :.*.X...` ) +.              ",
"                g =._ ` } %.%.%.%.%.%.[ ` ;.X.j                 ",
"                    j n.X.{ ` ` ' } [ X.N.j                     ",
"                          x k j j k x                           "
};
