/* XPM */
static char *dollar32[] = {
/* columns rows colors chars-per-pixel */
"32 32 175 2 ",
"   c #0000625E4D5A",
".  c #00006AC256DC",
"X  c #00006C185860",
"o  c #00006D7A59F0",
"O  c #00006EDA5B80",
"+  c #0000738060C4",
"@  c #000073DA612C",
"#  c #00007522629E",
"$  c #000075E06376",
"%  c #000076C46477",
"&  c #0000782E6610",
"*  c #00007AC76903",
"=  c #00007C1A6A85",
"-  c #00007D146BA0",
";  c #00007DA66C46",
":  c #000080456F3E",
">  c #000081537070",
",  c #0000834872A9",
"<  c #000083E07355",
"1  c #000084B9744C",
"2  c #0000851574B4",
"3  c #000085BB756E",
"4  c #000086687632",
"5  c #000087907783",
"6  c #000088847897",
"7  c #000089527981",
"8  c #000089ED7A30",
"9  c #00008A657AB9",
"0  c #00008ACD7B2C",
"q  c #00008B177B81",
"w  c #00008BC97C4B",
"e  c #00008C467CD9",
"r  c #00008C9D7D3C",
"t  c #00008DB57E78",
"y  c #00008EA57F89",
"u  c #1EEC870176E0",
"i  c #1D928AC97B2A",
"p  c #188E8E9D7F80",
"a  c #23D08DF77EC4",
"s  c #00008F9A809E",
"d  c #00008FF18101",
"f  c #10DE8F218015",
"g  c #0000907C819E",
"h  c #0000917182B5",
"j  c #000091F58349",
"k  c #0000924783A6",
"l  c #000092CD843D",
"z  c #000093798501",
"x  c #000093C8855A",
"c  c #0000942785C6",
"v  c #000094C7867B",
"b  c #000295938762",
"n  c #0000961E8800",
"m  c #0D0692058359",
"M  c #083E93A98537",
"N  c #0BD295BB8791",
"B  c #000096968888",
"V  c #0000976C897A",
"C  c #02169771897F",
"Z  c #000097F98A19",
"A  c #047297C989E3",
"S  c #0F7096B788AD",
"D  c #0000987C8AAF",
"F  c #0000993A8B86",
"G  c #048C98738AA7",
"H  c #08AC98618A8F",
"J  c #12F499D78C37",
"K  c #12E89E759173",
"L  c #1B709F659283",
"P  c #296E965B8845",
"I  c #1FBC9B978E31",
"U  c #21549CEF8FB9",
"Y  c #2FC699A58BFF",
"T  c #15D8A041937D",
"R  c #17CDA06693A6",
"E  c #1B4AA1D19543",
"W  c #1F8AA4A39875",
"Q  c #2532A50398E3",
"!  c #2CE4A7939BC9",
"~  c #371EA3D19785",
"^  c #39ECA07593B9",
"/  c #3522AB9BA05B",
"(  c #348EAC39A10D",
")  c #360CACD5A1C1",
"_  c #36C0AD21A215",
"`  c #38DFADC3A2CC",
"'  c #3930AE1FA337",
"]  c #39C4AD6DA26B",
"[  c #3A3CAE8FA3B5",
"{  c #3B8EAF1BA453",
"}  c #3C68AF74A4B8",
"|  c #4782A8E99D4D",
" . c #3FC2ACBFA1A5",
".. c #4A8AABCDA095",
"X. c #5C8CAF8DA4D5",
"o. c #4316B235A7D5",
"O. c #46A6B3ADA97F",
"+. c #4D3AB2EDA8A7",
"@. c #4D0EB395A965",
"#. c #4B4CB799ADF3",
"$. c #4C22B691ACC9",
"%. c #580CB1A1A72D",
"&. c #577AB35DA925",
"*. c #50E4B7E3AE45",
"=. c #52D8B8B1AF2F",
"-. c #54B2B975B00D",
";. c #597EB85FAED1",
":. c #571ABA71B12D",
">. c #57ACBAADB171",
",. c #5EE4BB35B20B",
"<. c #5DD4BCCFB3DB",
"1. c #5E2DBD5BB47A",
"2. c #724CB2A3A853",
"3. c #61D0BEDBB62D",
"4. c #636CBF85B6ED",
"5. c #79DEC03FB7BF",
"6. c #6D7BC3A8BB9E",
"7. c #717DC54FBD7D",
"8. c #7B9EC99DC25D",
"9. c #7F64CB3BC431",
"0. c #804BBE07B53B",
"q. c #8637C63FBE8D",
"w. c #897FC2D7BAAF",
"e. c #807DCB7DC47D",
"r. c #8221CC2BC541",
"t. c #824BCC3BC555",
"y. c #87CDCBA5C4A9",
"u. c #85FDCDC1C70F",
"i. c #8683CDF9C74D",
"p. c #8B8DCFE9C97F",
"a. c #98C5CBD7C4E5",
"s. c #9A31CC63C583",
"d. c #8EC1D15DCB27",
"f. c #902BD1F1CBCF",
"g. c #9455D177CB43",
"h. c #946DD3B3CDCB",
"j. c #96F9D4BFCEFD",
"k. c #9C2BD65DD0CF",
"l. c #A9DDD7D1D275",
"z. c #ADFDD7BDD25F",
"x. c #A33FD9CDD4B7",
"c. c #ABD3DD7FD8E7",
"v. c #AD83DE09D981",
"b. c #B82BE26BDE79",
"n. c #B67DE355DF83",
"m. c #B919E0BFDC95",
"M. c #B84BE279DE89",
"N. c #B9A7E307DF2B",
"B. c #BB1DE3A1DFD9",
"V. c #BBB7E3E1E022",
"C. c #BE0DE4D7E139",
"Z. c #C038E5BCE23C",
"A. c #C0D3E467E0B7",
"S. c #C17DE642E2D3",
"D. c #C301E6E1E389",
"F. c #C56FEA85E7A9",
"G. c #C89FEB17E84D",
"H. c #CF77E961E65D",
"J. c #CDF7EB65E8A5",
"K. c #DDB7EA17E72B",
"L. c #D3D9EDD1EB65",
"P. c #DAB5F187EF99",
"I. c #DCD3F333F17F",
"U. c #E139F1F5F015",
"Y. c #E1F3F2E9F12B",
"T. c #E46DF4FDF385",
"R. c #E593F51DF3AB",
"E. c #E823F62DF4DD",
"W. c #EEAFF969F887",
"Q. c #F195F9D3F8FF",
"!. c #F763FC59FBDD",
"~. c #FDE5FF21FF03",
"^. c #FDCFFFFFFFFF",
"/. c #FFFCFFFEFFFD",
"(. c None",
/* pixels */
"(.(.(.(.(.(.(.(.(.(.(.(.B B B B B B B B (.(.(.(.(.(.(.(.(.(.(.(.",
"(.(.(.(.(.(.(.(.(.B B B B B B B B B B B B B B (.(.(.(.(.(.(.(.(.",
"(.(.(.(.(.(.(.B B B B B B B B B B B B B B B B B B (.(.(.(.(.(.(.",
"(.(.(.(.(.(.B B B B B B B B B B B B B B B B B B B B (.(.(.(.(.(.",
"(.(.(.(.(.B B B B B B B B B B B B B B B B B B B B B B (.(.(.(.(.",
"(.(.(.(.B B B B B B B B B v v B B v v B B B B B B B B B (.(.(.(.",
"(.(.(.B B B B B B B B v D j t v F j t v B v B B B B B B B (.(.(.",
"(.(.B B B B B B B B s 9 $ ] S.t X } Z.t ; 9 j B B B B B B B (.(.",
"(.(.B B B B B D j < H ] X.m./.i.2.S./.8.&.! x 5 D B B B B B (.(.",
"(.B B B B D x = 5 y././././././././././././.U.] 5 D B B B B B (.",
"(.B B B B s T a.c./.G.%.Y e./._ i t./.] ^ e././.N s B B B B B (.",
"(.B B B B 9 Q /./.R.w = $ 1./.G X 4./.v = @ C./.#.< B B B B B (.",
"B B B B B D t 5 /.J.< B 5 6./.E = 7./.T t 5 =.m._ 9 B B B B B B ",
"B B B B B t L F./.E.9 = $ <./.B X 4./.v < s 9 9 x D B B B B B B ",
"B B B B B t W K.I./.n...P e./.} a i./.] I K s < v D B B B B B B ",
"B B B B B B v : M m././././././././././././.Y.;.: 5 B B B B B B ",
"B B B B B B B B 9 9 ! ,.7.m./.d.5.B./.p.q.l././.,.~ B v B B B B ",
"B B B B B B B B 9 5 9 5 o *./.j   >./.t % % ] /././.B s B B B B ",
"B B B B B B j v v.x.j x , 7./.E = 7./.L t t s /.m.f B B B B B B ",
"B B B B B B j v /./.5 t < 7./.E = 7./.T t 5 x /.L.| B v B B B B ",
"(.B B B B B v 9 P./.$.; X :./.j   -./.t & < e././.!.v j B B B (.",
"(.B B B B B B 5 +././.H.s.m./.h.w.B./.k.z.W./.T.U S B B B B B (.",
"(.B B B B B B v 5 +.A././././././././././.Q.g.J < s B B B B B (.",
"(.(.B B B B B B v 5 9 A p f./.} a g./.! m j < w D B B B B B (.(.",
"(.(.B B B B B B B B v j = o.S.v @ O.S.v 5 x B B B B B B B B (.(.",
"(.(.(.B B B B B B B B B B x t v D j t B B B B B B B B B B (.(.(.",
"(.(.(.(.B B B B B B B B B B v v B v v v B B B B B B B B (.(.(.(.",
"(.(.(.(.(.B B B B B B B B B B B B B B B B B B B B B B (.(.(.(.(.",
"(.(.(.(.(.(.B B B B B B B B B B B B B B B B B B B B (.(.(.(.(.(.",
"(.(.(.(.(.(.(.B B B B B B B B B B B B B B B B B B (.(.(.(.(.(.(.",
"(.(.(.(.(.(.(.(.(.B B B B B B B B B B B B B B (.(.(.(.(.(.(.(.(.",
"(.(.(.(.(.(.(.(.(.(.(.(.B B B B B B B B (.(.(.(.(.(.(.(.(.(.(.(."
};
