/* XPM */
static char *dollar64[] = {
/* columns rows colors chars-per-pixel */
"64 64 135 2 ",
"   c #00006EF85BA2",
".  c #000075E06377",
"X  c #000078C466BB",
"o  c #00007C7E6AF5",
"O  c #000080466F40",
"+  c #0000846473EB",
"@  c #000087FD77FE",
"#  c #00218B077B70",
"$  c #0AEC8E467F1C",
"%  c #00008FAB80B1",
"&  c #000E93BD854D",
"*  c #0D289061817F",
"=  c #00039699888B",
"-  c #0D4A969C8890",
";  c #00E098C28AFF",
":  c #0C5E9B1A8DA7",
">  c #13EB92DC844E",
",  c #129496F788F7",
"<  c #19BE976C897A",
"1  c #0FC89D158FE5",
"2  c #138B9E97919B",
"3  c #1CFF9EA491A8",
"4  c #25C29DC590AD",
"5  c #2AA59ED591DF",
"6  c #1CD1A25295D6",
"7  c #20F0A26E95F6",
"8  c #2B08A3B19763",
"9  c #2378A5639950",
"0  c #2AF6A7939BCA",
"q  c #2D05A9149D7E",
"w  c #31A7A16B94CF",
"e  c #38B5A3D6978C",
"r  c #3931A5BE99B6",
"t  c #3163A94B9DBC",
"y  c #3C24AA279EB5",
"u  c #3650ACF3A1DF",
"i  c #3BA1AE3BA355",
"p  c #3FC0A84D9C9D",
"a  c #48CAAF51A491",
"s  c #5010AFA9A4F1",
"d  c #42EAB223A7C1",
"f  c #48C2B1CFA762",
"g  c #46C9B3BBA990",
"h  c #4B71B518AB1B",
"j  c #5210B610AC34",
"k  c #5772B86FAEE5",
"l  c #59AFB8A5AF21",
"z  c #5626BA0FB0BB",
"x  c #5E55BC5AB355",
"c  c #6358B547AB50",
"v  c #6343BE34B56F",
"b  c #6D6CC01BB797",
"n  c #7108BFF7B76D",
"m  c #65B3C09AB825",
"M  c #66AAC12FB8CF",
"N  c #6D08C2F1BACD",
"B  c #73FAC5F4BE36",
"V  c #7B6DC5E0BE21",
"C  c #81E5C733BFA1",
"Z  c #83D6CCA4C5CB",
"A  c #899DCCD1C5FD",
"S  c #8A41CF6AC8F0",
"D  c #951BCEABC819",
"F  c #8C3FD055C9FA",
"G  c #9473D292CC85",
"H  c #9AFFD3B6CDCF",
"J  c #9E2BD7B7D259",
"K  c #A061D845D2F9",
"L  c #A5DFDABFD5C8",
"P  c #AC63DAA9D5AF",
"I  c #AE4ADE59D9DE",
"U  c #B1CBDF9BDB4A",
"Y  c #B404E191DD83",
"T  c #B99FE274DE84",
"R  c #BE28E58BE204",
"E  c #C0CFE3A9DFE1",
"W  c #C6CFE7C9E48F",
"Q  c #C3E0E699E336",
"!  c #C82FE905E5F3",
"~  c #C8B9E93CE633",
"^  c #CCD9EAB3E7DB",
"/  c #CD63EB29E861",
"(  c #CE5FEA81E7A3",
")  c #CA98E970E66E",
"_  c #D039EC53E9B3",
"`  c #CDF5ECB9EA27",
"'  c #D11BECAFEA1D",
"]  c #D29AED4EEAD0",
"[  c #D80DEF61ED29",
"{  c #D3ECED79EB00",
"}  c #D89BEFC5ED9D",
"|  c #DBD9EFDDEDB6",
" . c #D9FBF057EE41",
".. c #DBDFF11FEF23",
"X. c #DC5DF121EF27",
"o. c #DD53F1B9EFD1",
"O. c #DDB1F1DFEFFD",
"+. c #DEB5F161EF6F",
"@. c #E0FDF339F187",
"#. c #E1C0F38BF1E1",
"$. c #E1FBF453F2C5",
"%. c #E4D5F3C6F224",
"&. c #EAEDF5E3F489",
"*. c #EB8BF793F673",
"=. c #EC2BF7D5F6BD",
"-. c #EDB1F737F60B",
";. c #ED61F855F74F",
":. c #EF55F801F6F1",
">. c #EBBEF741F616",
",. c #EE09F899F79D",
"<. c #EEB3F8E0F7ED",
"1. c #EFD3F957F873",
"2. c #EB7DFA03F937",
"3. c #EFF3F963F881",
"4. c #EEC9FB0FFA67",
"5. c #F505F947F863",
"6. c #F0FBF9D1F8FD",
"7. c #F263FA65F9A5",
"8. c #F2D9FA0FF945",
"9. c #F303FAA7F9EF",
"0. c #F5E1FBD5FB47",
"q. c #F58BFE75FE3F",
"w. c #F833FCF7FC8F",
"e. c #F4EDFC72FBF8",
"r. c #FE9FFEA7FE77",
"t. c #FFFFFE9BFE6B",
"y. c #FD8BFEFDFEDB",
"u. c #FD61FFFFFFFF",
"i. c #FEB4FF77FF65",
"p. c #FECDFF81FF71",
"a. c #FF10FF9CFF90",
"s. c #FFFEFFFFFFFF",
"d. c #FFAAFFD9FFD4",
"f. c None",
"g. c black",
/* pixels */
"f.f.f.f.f.f.f.f.f.f.f.f.f.f.f.f.f.f.f.f.f.f.f.f.f.f.= = = = = = = = = = = = f.f.f.f.f.f.f.f.f.f.f.f.f.f.f.f.f.f.f.f.f.f.f.f.f.f.",
"f.f.f.f.f.f.f.f.f.f.f.f.f.f.f.f.f.f.f.f.f.f.= = = = = = = = = = = = = = = = = = = = f.f.f.f.f.f.f.f.f.f.f.f.f.f.f.f.f.f.f.f.f.f.",
"f.f.f.f.f.f.f.f.f.f.f.f.f.f.f.f.f.f.f.f.= = = = = = = = = = = = = = = = = = = = = = = = f.f.f.f.f.f.f.f.f.f.f.f.f.f.f.f.f.f.f.f.",
"f.f.f.f.f.f.f.f.f.f.f.f.f.f.f.f.f.= = = = = = = = = = = = = = = = = = = = = = = = = = = = = = f.f.f.f.f.f.f.f.f.f.f.f.f.f.f.f.f.",
"f.f.f.f.f.f.f.f.f.f.f.f.f.f.f.f.= = = = = = = = = = = = = = = = = = = = = = = = = = = = = = = = f.f.f.f.f.f.f.f.f.f.f.f.f.f.f.f.",
"f.f.f.f.f.f.f.f.f.f.f.f.f.f.= = = = = = = = = = = = = = = = = = = = = = = = = = = = = = = = = = = = f.f.f.f.f.f.f.f.f.f.f.f.f.f.",
"f.f.f.f.f.f.f.f.f.f.f.f.f.= = = = = = = = = = = = = = = = = = = = = = = = = = = = = = = = = = = = = = f.f.f.f.f.f.f.f.f.f.f.f.f.",
"f.f.f.f.f.f.f.f.f.f.f.= = = = = = = = = = = = = = = = = = = = = = = = = = = = = = = = = = = = = = = = = = f.f.f.f.f.f.f.f.f.f.f.",
"f.f.f.f.f.f.f.f.f.f.= = = = = = = = = = = = = = = = = = = = = = = = = = = = = = = = = = = = = = = = = = = = f.f.f.f.f.f.f.f.f.f.",
"f.f.f.f.f.f.f.f.f.= = = = = = = = = = = = = = = = = = = = = = = = = = = = = = = = = = = = = = = = = = = = = = f.f.f.f.f.f.f.f.f.",
"f.f.f.f.f.f.f.f.= = = = = = = = = = = = = = = = = = = = = = = = = = = = = = = = = = = = = = = = = = = = = = = = f.f.f.f.f.f.f.f.",
"f.f.f.f.f.f.f.= = = = = = = = = = = = = = = = = = = = = = = = = = = = = = = = = = = = = = = = = = = = = = = = = = f.f.f.f.f.f.f.",
"f.f.f.f.f.f.f.= = = = = = = = = = = = = = = = = = = = = = = = = = = ; = = = = = = = = = = = = = = = = = = = = = = f.f.f.f.f.f.f.",
"f.f.f.f.f.f.= = = = = = = = = = = = = = = = = = = = ; @ + + & = = = ; @ + + = = = = = = = = = = = = = = = = = = = = f.f.f.f.f.f.",
"f.f.f.f.f.= = = = = = = = = = = = = = = = = = = = = & x S S 2 & = = # v S S 1 & = = = = = = = = = = = = = = = = = = = f.f.f.f.f.",
"f.f.f.f.f.= = = = = = = = = = = = = = = = = = = = & + ' r.r.9 @ & & + ..r.r.6 @ = = = = = = = = = = = = = = = = = = = f.f.f.f.f.",
"f.f.f.f.= = = = = = = = = = = = = = = = & # + + + + o L r.r.1 o # @ o U r.r.; o + + + + % ; = = = = = = = = = = = = = = f.f.f.f.",
"f.f.f.= = = = = = = = = = = = = = ; & + @ 6 h B G L U =.r.r.^ T Q Q T 4.r.r.Q P K S B h : + # ; = = = = = = = = = = = = = f.f.f.",
"f.f.f.= = = = = = = = = = = = = ; @ # v Q r.r.r.r.r.r.r.r.r.r.r.r.r.r.r.r.r.r.r.r.r.r.r.:.G - @ ; = = = = = = = = = = = = f.f.f.",
"f.f.f.= = = = = = = = = = = # & + % T r.r.r.r.r.r.r.r.r.r.r.r.r.r.r.r.r.r.r.r.r.r.r.r.r.r.r.$., @ = = = = = = = = = = = = f.f.f.",
"f.f.= = = = = = = = = = = = : : * Y r.r.r.q.P V x f e Q r.r.h 8 q q 5 W r.r.h p z V P r.r.r.r.R + = = = = = = = = = = = = = f.f.",
"f.f.= = = = = = = = = = @ u =.:.4.r.r.r.R < + + + + X L r.r.: o @ @ o I r.r.= o + + o 8 4.r.r.r.9 # = = = = = = = = = = = = f.f.",
"f.= = = = = = = = = = = + g r.r.r.r.r.9.; o = = ; = @ U r.r.9 # = = @ R r.r.6 # = = = X m r.r.r.M + = = = = = = = = = = = = = f.",
"f.= = = = = = = = = = = # q W W 9.r.r.L + = = = = = @ Y r.r.9 # = = # Y r.r.6 # = = = @ 6 r.r.r.Z + = = = = = = = = = = = = = f.",
"f.= = = = = = = = = = = = = + # { r.r.Z + = = = = & @ U r.r.9 # = & # T r.r.6 # = = = # 1 r.r.r.J O = = = = = = = = = = = = = f.",
"f.= = = = = = = = = = = ; & o o { r.r.Z O = = = = & @ U r.r.9 # = & # Y r.r.6 # = = = & ; N B V i # = = = = = = = = = = = = = f.",
"= = = = = = = = = = = = & 2 l l $.r.r.K + = = = = = @ Y r.r.9 # = & @ Y r.r.6 # = = = ; = + + + # ; = = = = = = = = = = = = = = ",
"= = = = = = = = = = = = + g r.r.r.r.r.4.& + = = = = @ Y r.r.9 # = = @ R r.r.6 % = = = ; = = = = = ; = = = = = = = = = = = = = = ",
"= = = = = = = = = = = = + g r.r.r.r.r.r.Y * O + + + X L r.r.; o + + o I r.r.= o @ @ # # & = = = = = = = = = = = = = = = = = = = ",
"= = = = = = = = = = = = # 6 B b B r.r.r.r.4.H N h d r W r.r.z r i i r ) r.r.j r u q 9 2 % + @ = ; = = = = = = = = = = = = = = = ",
"= = = = = = = = = = = = ; & + + . a r.r.r.r.r.r.r.r.r.r.r.r.r.r.r.r.r.r.r.r.r.r.r.r.r.9.^ A 3 + = ; = = = = = = = = = = = = = = ",
"= = = = = = = = = = = = ; = = = = + y E r.r.r.r.r.r.r.r.r.r.r.r.r.r.r.r.r.r.r.r.r.r.r.r.r.r.0.j + = = = = = = = = = = = = = = = ",
"= = = = = = = = = = = = = = = = = ; + @ q N H T ^ [ | 0.r.r.#...O.o...0.r.r.$.....&.r.r.r.r.r.r.7 . + + = = = = = = = = = = = = ",
"= = = = = = = = = = = = = = = = = = ; = @ + + @ % & @ U r.r.9 @ = & @ Y r.r.6 @ - = 3 s R r.r.r._ c M j & & = = = = = = = = = = ",
"= = = = = = = = = = = = = = = = = = = = = = = = & # + I r.r.6 + & # + Y r.r.2 + & % # O O I r.r.r.r.r.4.% & = = = = = = = = = = ",
"= = = = = = = = = = = = = = = = @ + + @ ; = = = = = @ Y r.r.9 # = & @ R r.r.6 # = = = ; + 0 r.r.r.r.r.4.% & = = = = = = = = = = ",
"= = = = = = = = = = = = = = = & h M M h & = = = = = @ U r.r.9 # = = # Y r.r.6 # = = = = % = 9.r.r.F c z = = = = = = = = = = = = ",
"= = = = = = = = = = = = = = & @ O.r.r.{ + = = = = = @ U r.r.9 # = = # T r.r.6 # = = = = & = O.r.r.6   + = = = = = = = = = = = = ",
"f.= = = = = = = = = = = = = & & ` r.r.Y @ = = = = = @ Y r.r.9 # = & # T r.r.6 # = = = = # = ,.r.r.q o # = = = = = = = = = = = f.",
"f.= = = = = = = = = = = = = & # ) r.r._ @ & = = = = @ Y r.r.9 # = = # T r.r.6 % = = = ; + 9 r.r.r.) T G & & = = = = = = = = = f.",
"f.= = = = = = = = = = = = = = + U r.r.r.9 o ; = ; = @ U r.r.9 @ = = @ R r.r.6 # = = ; & X G r.r.r.r.r.w.# & = = = = = = = = = f.",
"f.= = = = = = = = = = = = = = + N r.r.r.[ < o + @ @ + I r.r.2 + # # + Y r.r.: + @ + O + M r.r.r.r.0.q.! & & = = = = = = = = = f.",
"f.f.= = = = = = = = = = = = = # : r.r.r.r.q.D k t 3 * Y r.r.q $ : = $ Y r.r.q < t j C ) r.r.r.r.h > 6 : = = = = = = = = = = f.f.",
"f.f.= = = = = = = = = = = = = = + h r.r.r.r.r.r.r.r.:.w.r.r.,.=.&.=.=.w.r.r.0.r.r.r.r.r.r.r.r.Z o # # # = = = = = = = = = = f.f.",
"f.f.f.= = = = = = = = = = = = = = + a { r.r.r.r.r.r.r.r.r.r.r.r.r.r.r.r.r.r.r.r.r.r.r.r.r.%.v + & = = = = = = = = = = = = f.f.f.",
"f.f.f.= = = = = = = = = = = = = = = + % j H ) :.r.r.r.r.r.r.r.r.r.r.r.r.r.r.r.r.w.%.W G j - + = ; = = = = = = = = = = = = f.f.f.",
"f.f.f.= = = = = = = = = = = = = = = ; & + + % : 6 q w Q r.r.j w u t w W r.r.g 4 6 = # + + % = = = = = = = = = = = = = = = f.f.f.",
"f.f.f.f.= = = = = = = = = = = = = = = = = = = # # @ o L r.r.; o @ + o I r.r.; o # & = = = = = = = = = = = = = = = = = = f.f.f.f.",
"f.f.f.f.f.= = = = = = = = = = = = = = = = = = = = & + { r.r.q + = & @ ..r.r.9 @ = = = = = = = = = = = = = = = = = = = f.f.f.f.f.",
"f.f.f.f.f.= = = = = = = = = = = = = = = = = = = = = & x S A 2 & = & & M F S : & = = = = = = = = = = = = = = = = = = = f.f.f.f.f.",
"f.f.f.f.f.f.= = = = = = = = = = = = = = = = = = = = ; @ + + = ; = = ; @ + + & = = = = = = = = = = = = = = = = = = = f.f.f.f.f.f.",
"f.f.f.f.f.f.f.= = = = = = = = = = = = = = = = = = = = = = = = = = = = = = = = = = = = = = = = = = = = = = = = = = f.f.f.f.f.f.f.",
"f.f.f.f.f.f.f.= = = = = = = = = = = = = = = = = = = = = = = = = = = = = = = = = = = = = = = = = = = = = = = = = = f.f.f.f.f.f.f.",
"f.f.f.f.f.f.f.f.= = = = = = = = = = = = = = = = = = = = = = = = = = = = = = = = = = = = = = = = = = = = = = = = f.f.f.f.f.f.f.f.",
"f.f.f.f.f.f.f.f.f.= = = = = = = = = = = = = = = = = = = = = = = = = = = = = = = = = = = = = = = = = = = = = = f.f.f.f.f.f.f.f.f.",
"f.f.f.f.f.f.f.f.f.f.= = = = = = = = = = = = = = = = = = = = = = = = = = = = = = = = = = = = = = = = = = = = f.f.f.f.f.f.f.f.f.f.",
"f.f.f.f.f.f.f.f.f.f.f.= = = = = = = = = = = = = = = = = = = = = = = = = = = = = = = = = = = = = = = = = = f.f.f.f.f.f.f.f.f.f.f.",
"f.f.f.f.f.f.f.f.f.f.f.f.f.= = = = = = = = = = = = = = = = = = = = = = = = = = = = = = = = = = = = = = f.f.f.f.f.f.f.f.f.f.f.f.f.",
"f.f.f.f.f.f.f.f.f.f.f.f.f.f.= = = = = = = = = = = = = = = = = = = = = = = = = = = = = = = = = = = = f.f.f.f.f.f.f.f.f.f.f.f.f.f.",
"f.f.f.f.f.f.f.f.f.f.f.f.f.f.f.f.= = = = = = = = = = = = = = = = = = = = = = = = = = = = = = = = f.f.f.f.f.f.f.f.f.f.f.f.f.f.f.f.",
"f.f.f.f.f.f.f.f.f.f.f.f.f.f.f.f.f.= = = = = = = = = = = = = = = = = = = = = = = = = = = = = = f.f.f.f.f.f.f.f.f.f.f.f.f.f.f.f.f.",
"f.f.f.f.f.f.f.f.f.f.f.f.f.f.f.f.f.f.f.f.= = = = = = = = = = = = = = = = = = = = = = = = f.f.f.f.f.f.f.f.f.f.f.f.f.f.f.f.f.f.f.f.",
"f.f.f.f.f.f.f.f.f.f.f.f.f.f.f.f.f.f.f.f.f.f.= = = = = = = = = = = = = = = = = = = = f.f.f.f.f.f.f.f.f.f.f.f.f.f.f.f.f.f.f.f.f.f.",
"f.f.f.f.f.f.f.f.f.f.f.f.f.f.f.f.f.f.f.f.f.f.f.f.f.f.= = = = = = = = = = = = f.f.f.f.f.f.f.f.f.f.f.f.f.f.f.f.f.f.f.f.f.f.f.f.f.f."
};
