/* XPM */
static char *_85fe2606b1e443fb9bb84e744d5bdbev9h0rEBWvbEtA5Gs[] = {
/* columns rows colors chars-per-pixel */
"64 64 116 2 ",
"   c None",
".  c #7E3F77",
"X  c #77397F",
"o  c #7B3D7B",
"O  c #7F4077",
"+  c #BF712F",
"@  c #BD6E33",
"#  c #B2673E",
"$  c #B5693B",
"%  c #B96C39",
"&  c #BE7031",
"*  c #CF7D1F",
"=  c #D07E1D",
"-  c #C87726",
";  c #CB7A23",
":  c #C4742C",
">  c #C8772A",
",  c #C97828",
"<  c #C47431",
"1  c #9B5557",
"2  c #9F5854",
"3  c #96515E",
"4  c #9A5459",
"5  c #A55D4D",
"6  c #A85F4A",
"7  c #A15A51",
"8  c #AC6245",
"9  c #A96049",
"0  c #B16640",
"q  c #8F4C65",
"w  c #86466E",
"e  c #88476C",
"r  c #8B496A",
"t  c #914E62",
"y  c #945060",
"u  c #834371",
"i  c #954D7E",
"p  c #984F7E",
"a  c #9C517C",
"s  c #A65977",
"d  c #AC5C75",
"f  c #A25579",
"g  c #A65978",
"h  c #B15F73",
"j  c #BF696D",
"k  c #B36172",
"l  c #B86470",
"z  c #C46C6B",
"x  c #CB7268",
"c  c #D27666",
"v  c #D67964",
"b  c #DC7D62",
"n  c #E07F60",
"m  c #DD870F",
"M  c #DE880E",
"N  c #D78317",
"B  c #DB8612",
"V  c #DE8810",
"C  c #D4801A",
"Z  c #E58E06",
"A  c #E88F04",
"S  c #E28B0A",
"D  c #E79004",
"F  c #EB9201",
"G  c #F19600",
"H  c #F39800",
"J  c #FA9D00",
"K  c #E08912",
"L  c #FFA400",
"P  c #FF994F",
"I  c #E3825E",
"U  c #E9865C",
"Y  c #ED895A",
"T  c #F58E57",
"R  c #F88F56",
"E  c #F28C58",
"W  c #F79056",
"Q  c #FC9353",
"!  c #FF9950",
"~  c #3F10BB",
"^  c #4E1D9B",
"/  c #511F9A",
"(  c #572397",
")  c #5A2596",
"_  c #5E2894",
"`  c #542199",
"'  c #5C259C",
"]  c #5F2898",
"[  c #672E8F",
"{  c #682F8F",
"}  c #6F3487",
"|  c #6D328B",
" . c #723685",
".. c #753981",
"X. c #7F3E87",
"o. c #72358D",
"O. c #76388B",
"+. c #7C3C89",
"@. c #662D91",
"#. c #682E90",
"$. c #602898",
"%. c #693091",
"&. c #4D1AAC",
"*. c #531FA5",
"=. c #511DA8",
"-. c #4515B4",
";. c #4A17B0",
":. c #4A18B0",
">. c #4112B9",
",. c #5621A2",
"<. c #5823A0",
"1. c #803E88",
"2. c #854385",
"3. c #8A4683",
"4. c #8D4882",
"5. c #914A81",
/* pixels */
"                                                              Q Q                                                               ",
"                                                T b z d a i 3.2.2.3.p a k z b Q                                                 ",
"                                          Y z a +.@.) ` ` ` ( ( ( ( ( ( ( ) @.1.f x E                                           ",
"                                    ! v f | ( ` ( _ @.@.@.@.@.[ @.@.@.@.@.$._ ( ` ( O.s b                                       ",
"                                  v 5._ ` ) $.@.@.@.@.[ @.@.@.@.@.[ @.@.[ @.[ @.@.$.) / $.a b                                   ",
"                              U p _ / _ @.@.[ @.@.@.@.@.@.@.@.@.@.@.@.@.@.@.@.@.@.@.[ [ _ / $.f T                               ",
"                          ! j #./ _ @.@.@.@.@.@.@.%.@.[ %.@.@.@.@.@.[ @.[ [ @.@.@.[ @.@.[ [ _ ^ o.x                             ",
"                        W p ` ( @.@.@.[ @.@.@.@.@.$.@.$.@.@.[ @.@.#.@.@.$.$.@.@.@.@.@.[ @.[ { @.` ` g !                         ",
"                      U +.^ _ @.@.@.#.@.[ @.@.| $.,.' ,.$.{ @.@.@.{ [ ' ,.' ( #.#.@.@.@.@.[ @.@.[ _ ^ 3.T                       ",
"                    I %./ @.#.@.@.@.@.@.@.@.@.' o : @ > r ' @.@.@.$.@.# < > 5 ' @.@.@.@.@.@.@.@.@.{ $.^ +.Y                     ",
"                  I %.` @.@.@.@.@.@.@.@.@.[ @.*.e J H L 5 =.@.@.@.] @.M J L ; ,.@.#.@.@.{ @.#.@.[ @.@.@.^ O.Y                   ",
"                U | / @.#.@.@.@.@.[ @.@.$.$.] :.o F S H t -.,.' ,.=.' * F F @ &.,.' $.$.$.@.[ @.@.@.@.@.@.^ +.T                 ",
"              W +.^ @.@.@.@.{ @.' ,.=.<.$.#.} #.t D S F 6 | . o . ... = Z F : |  .| { $.' =.=.' @.{ @.[ #.@.^ 4.!               ",
"            ! a ^ @.@.@.| $.,.,. .q 5 % ; = B M M M M M S Z S Z Z Z Z M B S M S B B = ; & 8 q | =.' | @.@.@.$./ g               ",
"            j ` $.[ %.%.<.,.u & M F H G F Z D Z S m M M M S S S S S S M V M S Z Z D D F G G G B 9 $.,.[ @.#.@._ ( c             ",
"          U #.( [ [ %.' <.0 G G Z M M S A F F G F M M B F H G H G G G S B B S G F F F Z M M M F J C { ,.#.@.@.#.` O.T           ",
"          5.` ' *.*.=.=.@ J S B S G G S = ; < # & M M Z : 6 8 8 0 6 8 B S Z = # % > * M H F M B M J ; ' $.[ @.@.@./ d           ",
"        b ( ' u r w o 6 G S B D F $ e ..{ $.' -.X F S H t ~ =.,.*.&.*.* F G % ;.' ' @. .e < F S M M J 3 =.%.@.@.@.) @.I         ",
"      ! 5./ ,.@ L F F F M B Z Z w :.=.' $.$.@.*.u D S H 4 =.@.@.@.$.@.= A F < *._ _ ] ' &.&.9 G M m F > <.$.@.@.[ @.` f         ",
"      b ] ( ,.% H S S S M M G 2 -.@.#.#.@.[ [ *.u F S F 1 ,.@.@.@.$.{ = A G @ ,.$.@.@.[ { ' ' C F m Z B } ] @.@.@.@.) %.U       ",
"      a ` @.,.& L G S B M Z B | ' #.@.@.[ @.@.*.u A S H 1 =.@.@.@._ #.= F F < ' @.@.@.[ @.@.=.9 H m S Z o <.@.@.@.@.@.` h       ",
"    E o.( @.$.u 3 w < A V F > ( $.@.@.#.@.@.#./ w D S F 1 ,.{ @.@.$.@.= F F @ ' $.%.@.@.[ @.=.3 F M S D u ,.@.@.@.@.@.` +.Q     ",
"    z ` @.@.%.' =.>.8 G M F @ ' @.@.@.@.#.#.#.*.u D S H 1 ,.@.@.@.$.@.= F F & ' @.@.@.@.@.@.=.3 L H H J e ,.@.@.@.@.@._ _ v     ",
"    a ` @.@.@.] ,.&.$ G M G @ ' $.@.@.@.@.#.#.<.u F S F 1 =.@.[ @.' #.= F F & ' $.[ @.@.@.@.' o 9 2 7 5  .$.@.@.@.#.@.@.` d     ",
"  T +.( @.@.@.|  .$.# G B F ; ' $.@.@.@.@.@.@.,.u A S G 1 =.[ @.@.$.#.= A G @ ' $.[ @.[ @.@.| ] =.*.*.=.$.{ @.@.@.@.@.@.( 3.Q   ",
"  b @._ @.@.,.# F B B S M Z S o.' [ @.#.@.@.@.,.u F S G 1 ,.@.@.@.$.@.= A F @ ' @.@.@.@.@.@.@.@.@.@.{ @.{ @.#.@.@.@.@.[ _ | U   ",
"  z ( $.@.@.*.% J Z S B S B G 8 -.$.[ @.#.#.[ *.u D S G 1 =.@.@.[ $.#.= A G < ' @.@.@.@.@.[ @.@.@.@.@.@.@.@.@.@.@.@.@.@.$.$.v   ",
"  k ( @.[ @.*.: L G G F B K S F 2 *.=.*.( ' $.&.. F S G 3 &.] _ _ ,.$.* A F @ =.' $.$.$.$.@.@.@.#.@.@.@.[ @.@.{ #.@.@.@.$.` z   ",
"  a ` @.@.@.' 2 < % 0 ; F M B Z G - 7 u ..o.{ ' u A S F 1 ,.[ [ @.$.#.= A F @ ' $.@.$.$.' <.=.=.' @.[ @.@.@.@.@.@.@.@.@.[ ( d   ",
"  5.` @.@.@.{ ' *.,.&.@.S G B B S F G F S N = * C M M S N * = * = = = M S S N = * * * ; : @ 8 t | =.] { [ @.@.@.@.[ @.@.[ ` f   ",
"  4.` #.@.@.[ @.@.@.@.=...B J A S B S S S A A F A M M B Z F F F A A A S M B S A F F F F F G H G V 7 ' ' { @.@.@.@.@.@.@.@.` a   ",
"Q 2.( @.@.@.@.@.[ @.@.{ *.@.6 B F G G A A A S Z S M M M S Z S S S S S M M M S A Z Z S S M M M M F J ; ' ' { @.@.[ @.[ @.@.` p   ",
"Q 2.( @.@.@.@.[ [ @.@.#.{ ' =.#.e 6 @ ; = B M M M M V M M V M V S S S m m S M S M M S Z G G A M B M J @ =.,.' ' $.{ @.#.@.` p   ",
"  3.( @.@.@.@.@.@.@.@.@.@.@.@.$.,.=.,.$.{  . .#.t D S F 7 @..... . ...= A A < {  . .X . r 5 = G S M S G q $. . .| @.@.@.@.( a   ",
"  i ` @.{ @.@.@.@.@.@.@.@.@.@.@.[ @.@.$.' ' ' :.o D Z H 3 ;.( ' ' =.' = A G % &.' ' ' *.*.=.,.5 G S M S S B V F 7 *.#.@.@.` f   ",
"  a ( @.@.@.#.@.@.@.@.@.@.#.@.@.@.@.@.@.#.{ { ,.u D S F 4 ,.@.@.[ ] [ = A G @ ' $.#.[ [ #.#.' &.% G B M S D Z J 5 =.@.@.@.` k   ",
"  h ` @.@.{ @.@.{ @.$.,.<.<.' @.{ @.@.@.@.@.@.,.u D S G 1 =.[ @.@.$.#.= A A < / $.[ @.@.[ @.[ =.u F S B M F H L 9 =.[ @.$.( z   ",
"  x ) $.@.@.@.@.@.@.} O o X X #.@.@.@.@.@.[ @.,.u F Z F 1 =.@.@.@.$.#.= A G < $.@.@.[ @.@.@.@.'  .B Z S M $ 9 % e ' @.@._ [ v   ",
"  n { _ @.@.@.@.[ =.7 H S F B | ' @.@.@.@.@.@.,.u D S G 1 ,.@.@.@.$.#.= A F @ *.$.@.@.@.@.@.@.$.#.= F S Z | -.=.$.| @.@.) o.Y   ",
"  R X.( @.[ @.@.@.=.9 J Z F B | $.@.@.@.@.@.@.,.u F S G 1 ,.@.@.@.$.#.= A A < $.@.[ @.#.@.@.@.$.@.= F S S o ,.$.@.@.@.@.` 4.    ",
"    f ` @.@.@.@.@.,.9 G M A C | ' { [ @.@.@.@.,.w A M H 1 ,.@.[ @.] @.= A G < $.$.@.@.@.#.@.@.$.| B Z S S | &.,.] @.@.@.` k     ",
"    x ) _ @.@.@.@.,.9 G B Z S ..' @.@.@.@.@.{ ,.u D S F 1 =.@.@.@.$.@.= A F @ / @.@.#.@.@.@.[ *.X A S S M @ % : q ' @._ $.b     ",
"    E O.) [ @.@.@.=.7 H M M G t &.#.@.@.{ @.@.,.u A S G 1 =.@.@.@.] #.= A G < $.@.@.@.@.[ [ #.;.5 H M B M F G L 9 =.@.` 2.Q     ",
"      g / @.@.@.@.,.w F S V F C ' =.@.@.@.@.#.,.u F S G 1 ,.[ @.@.$.@.= A F % <.$.@.@.#.{ $.-...Z Z M M F F A L 6 =.@.` l       ",
"      n @._ @.@.@.$.#.N F B M F > | =.=.,.' $.=.u A S G 4 &.@.$.$.' $.= A G @ *.$.$.*.*.*.' w K F M M Z C ; C K 1 ,.( o.Y       ",
"        p ^ @.@.@.@.=.5 J M M m G S 0 t . | { =.. Z S G 3 :.] ( $./ ' = A G < / $.| o r 7 - G A M B H = $.$.@.@.@.@./ g         ",
"        n $._ @.@.{ $.' * J M M B Z G F Z N = ; ; S S S = : > > : : : B S S = - = B S F H F S B V F F o =.$.$.' @.( %.E         ",
"          f ^ @.@.@.{ ,.@.; J F S M M S S Z F F F B M B Z F F F G F G S m B S G A A S S S B S A J S u =.@.@.#.@.@./ k           ",
"          E o.` #.#.@.{ ' ' 7 B G H F F S S S S S M M M M S S S S M S M M M M S S S Z F G H F B 8 | ,.@.@.@.@.@.` +.Q           ",
"            x ` _ @.@.@.[ ' =.$.r 8 > = M Z D F A M M B D F F D F F F S m m S F Z S B = < 8 r | =.<.@.@.@.@.{ ) _ b             ",
"              f ^ $.{ @.@.{ @.$.*.=.' {  .o u O 2 Z M F 8 O w w w w r C S F - o . X } @.' =.=._ @.%.@.@.@.@._ / l               ",
"              ! 3.^ @.#.@.@.@.@.{ @.$.$.' ' ,.>.X F S G t >.,.,.*.&.,.* F F % ;.,.' ' $.$.@.[ %.@.@.@.@.@.@.^ a !               ",
"                E +.^ @.#.@.@.@.@.@.{ @.@.@.{ ,.u A M H 1 *.@.@.[ _ @.= A F @ ' $.@.@.@.[ @.@.@.@.@.@.[ $./ 3.Q                 ",
"                  Y O.^ @.@.@.@.@.@.@.@.[ @.@.*.e J J L 5 =.@.@.@.' #.S L L ; ' @.@.@.@.@.@.@.@.@.@.| $.^ 2.W                   ",
"                    Y +./ $.#.@.@.@.@.#.@.@.@.' X % # % w ' @.@.{ $.@.6 % % 1 ] @.@.@.@.@.@.@.@.@.[ $.^ 2.W                     ",
"                      T 4.^ _ { [ @.@.@.@.@.@.[ $.,.=.*.( | @.@.@.@.@.,.&.,.' { @.@.@.@.@.@.@.@.%.) / a Q                       ",
"                        ! g ( ` @.@.@.@.@.@.@.[ @.@.@.@.@.@.@.@.@.[ @.@.@.@.@.@.[ @.@.@.@.[ @.@.` _ l !                         ",
"                            c O.^ ) @.#.@.@.@.@.@.@.@.@.@.@.@.[ @.@.@.@.@.@.@.@.@.@.@.@.#.@.( ` +.b                             ",
"                              T d @./ ) @.@.@.[ @.@.#.@.@.@.@.@.@.#.@.[ @.@.@.@.@.@.{ $.) ^ %.k Q                               ",
"                                  I f #.` ( $.[ @.@.@.@.@.[ @.@.@.@.@.@.@.#.@.@.@._ ` ` | d Y                                   ",
"                                      U k +._ ` ( ) _ $.@.@.@.@.@.@.@.@.@.$.) ( ` _ 2.l Y                                       ",
"                                          T v d 3.o.$.) ` ( ` ` ` ` ` ` ( $.} i k b Q                                           ",
"                                                ! U v j d f a p p a f k z v U                                                   ",
"                                                                                                                                "
};
