/* XPM */
static char *dollar16[] = {
/* columns rows colors chars-per-pixel */
"16 16 109 2 ",
"   c #000048E23078",
".  c #0000618A4C68",
"X  c #000074CC623C",
"o  c #0000773464F6",
"O  c #00007BF46A5A",
"+  c #00007C906B0A",
"@  c #00007FFC6EEC",
"#  c #000080A96FB0",
"$  c #000083357292",
"%  c #000085FF75BC",
"&  c #0000863F7606",
"*  c #0000871376F4",
"=  c #00008887789A",
"-  c #00008A4F7AA0",
";  c #00008AFA7B61",
":  c #00008B587BCB",
">  c #00008BCB7C4E",
",  c #00008D777E33",
"<  c #00008E297EFE",
"1  c #00008ED17FBA",
"2  c #00008F37802E",
"3  c #047C8F47803F",
"4  c #0000901D8133",
"5  c #000090E58215",
"6  c #0000918582C9",
"7  c #000091BF830C",
"8  c #03009123825B",
"9  c #0000925183B1",
"0  c #0000933D84BD",
"q  c #02F893998525",
"w  c #000094ED86A7",
"e  c #08F090B781DF",
"r  c #000096958887",
"t  c #0000975F896C",
"y  c #000097FE8A20",
"u  c #000098458A70",
"i  c #000098F78B3B",
"p  c #0000992C8B77",
"a  c #069C994D8B9D",
"s  c #000099BB8C17",
"d  c #0DCE9C438EF9",
"f  c #0E389C6F8F2B",
"g  c #11609B418DD3",
"h  c #13549E8B918D",
"j  c #1832A08B93D1",
"k  c #1BB8A1FF9577",
"l  c #1924A4D398AB",
"z  c #2108A42F97F1",
"x  c #2268A46F983B",
"c  c #2596A60F9A11",
"v  c #26C0A6899A9D",
"b  c #25B8A8279C6F",
"n  c #2894A4C19897",
"m  c #29C6A7C99C07",
"M  c #3DC2A6C19ADB",
"N  c #3A0AAB4FA003",
"B  c #3476AC2FA103",
"V  c #39E0ACA3A185",
"C  c #3C18AEA7A3CD",
"Z  c #4DA8AB99A059",
"A  c #49ECB505AB05",
"S  c #55B2B34BA90F",
"D  c #5986B36FA939",
"F  c #52E8B8B9AF37",
"G  c #57DAB95FAFF5",
"H  c #73FEB66DAC9D",
"J  c #669CBDE3B511",
"K  c #6D00C377BB65",
"L  c #7446C675BECB",
"P  c #7A98C911C1BD",
"I  c #7CB8C9F1C2BB",
"U  c #86E1C3A5BB99",
"Y  c #83BFC8E5C18B",
"T  c #80C1CF43C8C3",
"R  c #92D7CA5FC33B",
"E  c #910BD24FCC37",
"W  c #94B7D183CB4F",
"Q  c #92D7D30DCD0F",
"!  c #9415D38FCDA3",
"~  c #9751D4E5CF25",
"^  c #9995D1D9CBB1",
"/  c #9DF5D227CC0B",
"(  c #9BDFD6E1D165",
")  c #A719D731D1BF",
"_  c #A19FD861D319",
"`  c #A4CBD8FBD3C7",
"'  c #A2DBD9A5D487",
"]  c #AA15DC9FD7E7",
"[  c #A995E053DC1B",
"{  c #AF27DEB5DA45",
"}  c #AF7DDED9DA6D",
"|  c #B3D3E0EDDCCB",
" . c #B467E1C1DDB9",
".. c #BB13E39DDFD5",
"X. c #BB89E3CEE00C",
"o. c #BDBBE4B5E113",
"O. c #C497E789E447",
"+. c #C5A9E7F9E4C7",
"@. c #CC35EAADE7D5",
"#. c #D3ADEDBFEB51",
"$. c #D883EFBDED93",
"%. c #D967F019EDFD",
"&. c #DEB0F248F074",
"*. c #E9C0F646F4FB",
"=. c #EAE3F76BF645",
"-. c #EC32F7EAF6D6",
";. c #EEC5F8E7F7F5",
":. c white",
">. c None",
/* pixels */
">.>.>.>.>.r r r r r r >.>.>.>.>.",
">.>.>.r r r r r r r r r r >.>.>.",
">.>.r r r u 2 > 5 - u r r r >.>.",
">.r r r - $ k v f B $ & r u r >.",
">.r r > n / #.&.+.-.) G > r r >.",
"r r > S -.J I ! K ' D :.V - r r ",
"r r & T :.o v F h P . z b 5 r r ",
"r r 2 M ` | ..@...$._ C $ r r r ",
"r r u - & Z [ { E X.H -.E 8 q w ",
"r r 2 l | X z A a L   ( :., 5 r ",
"r r q 8 *.[ ~ { Q o.U -.Y w q r ",
">.r r > g R $.&.O.;.^ V # w r >.",
">.r r u 2 + f k w m + - r r r >.",
">.>.r r r u 2 > q > u r r r >.>.",
">.>.>.r r r r r r r r r r >.>.>.",
">.>.>.>.>.r r r r r r >.>.>.>.>."
};
