/* XPM */
static char *_16ed6cc0670479a8695afa747ebb2a82VDAF7TgeDuHcYjS[] = {
/* columns rows colors chars-per-pixel */
"16 16 186 2 ",
"   c None",
".  c #6C347A",
"X  c #7D3E77",
"o  c #763A7A",
"O  c #773A7E",
"+  c #7A3C7A",
"@  c #7C3D7A",
"#  c #7A3C7C",
"$  c #7F4074",
"%  c #B96C37",
"&  c #BC6E34",
"*  c #B1663F",
"=  c #B76B3A",
"-  c #BD6F3A",
";  c #B86C3F",
":  c #CF7C1F",
">  c #CF7D1F",
",  c #D27F1B",
"<  c #D27F1C",
"1  c #D07D1F",
"2  c #C87726",
"3  c #CC7A20",
"4  c #CC7B23",
"5  c #CE7D20",
"6  c #CE7C21",
"7  c #CA7924",
"8  c #CB7A24",
"9  c #C77728",
"0  c #C67629",
"q  c #C6762A",
"w  c #C2732D",
"e  c #C1722E",
"r  c #C1722F",
"t  c #C3742D",
"y  c #C87728",
"u  c #C8772A",
"i  c #CB7A2E",
"p  c #D07D2A",
"a  c #C07130",
"s  c #9C5656",
"d  c #95515F",
"f  c #995459",
"g  c #A25D47",
"h  c #A35C4E",
"j  c #A55C4D",
"k  c #A65E4E",
"l  c #A55D51",
"z  c #A05956",
"x  c #AA614A",
"c  c #AB614F",
"v  c #B06540",
"b  c #B16640",
"n  c #B56942",
"m  c #B46846",
"M  c #88476D",
"N  c #8B4A68",
"B  c #8A496E",
"V  c #914D65",
"C  c #814273",
"Z  c #834374",
"A  c #844475",
"S  c #81407F",
"D  c #914A7E",
"F  c #924C7E",
"G  c #954E7C",
"H  c #9F5579",
"J  c #9E547A",
"K  c #9F547D",
"L  c #A45877",
"P  c #A55977",
"I  c #A15678",
"U  c #C37366",
"Y  c #C97663",
"T  c #CA7762",
"R  c #CD7961",
"E  c #DA8512",
"W  c #DB8512",
"Q  c #D88316",
"!  c #D98517",
"~  c #D58118",
"^  c #D48019",
"/  c #D48119",
"(  c #D5811D",
")  c #D6821F",
"_  c #DB861A",
"`  c #E68E08",
"'  c #EB9201",
"]  c #EC9300",
"[  c #EC9303",
"{  c #EE9400",
"}  c #E99005",
"|  c #EA9108",
" . c #E8900D",
".. c #E9900D",
"X. c #E9900F",
"o. c #F49900",
"O. c #E28B13",
"+. c #E38C12",
"@. c #E48C13",
"#. c #FFA400",
"$. c #D48120",
"%. c #D48123",
"&. c #370CAF",
"*. c #3C0DAB",
"=. c #380AAF",
"-. c #390CAD",
";. c #3E11A7",
":. c #3F11A9",
">. c #2C03BA",
",. c #2F05B8",
"<. c #2B00BE",
"1. c #2A01BF",
"2. c #3205B4",
"3. c #3005B7",
"4. c #3608B1",
"5. c #350AB0",
"6. c #360AB0",
"7. c #360BB0",
"8. c #3809B0",
"9. c #3005B8",
"0. c #3E0FBB",
"q. c #3D0DBE",
"w. c #47179E",
"e. c #48179E",
"r. c #4D1B9B",
"t. c #4E1C99",
"y. c #4E1D99",
"u. c #4F1D99",
"i. c #4A199D",
"p. c #48189F",
"a. c #49189F",
"s. c #562392",
"d. c #542294",
"f. c #582395",
"g. c #5D269A",
"h. c #5B249E",
"j. c #5F2899",
"k. c #622B8D",
"l. c #692F8E",
"z. c #6E3389",
"x. c #6A308E",
"c. c #71368B",
"v. c #71358C",
"b. c #773A89",
"n. c #75388A",
"m. c #652C90",
"M. c #672E90",
"N. c #652D92",
"B. c #622B95",
"V. c #6A2E97",
"C. c #713292",
"Z. c #4616A1",
"A. c #4515A3",
"S. c #4213A5",
"D. c #4211A6",
"F. c #4112A7",
"G. c #4415A4",
"H. c #4718A1",
"J. c #4818A1",
"K. c #4E1CA0",
"L. c #4E1BAB",
"P. c #4A18AD",
"I. c #4B19AD",
"U. c #4B18AE",
"Y. c #4B19AE",
"T. c #4C19AE",
"R. c #511DA6",
"E. c #4715B0",
"W. c #4514B3",
"Q. c #4111B7",
"!. c #4917B0",
"~. c #4816B3",
"^. c #4111B8",
"/. c #4211B8",
"(. c #5722A1",
"). c #1F00C5",
"_. c #2C01CD",
"`. c #380AC1",
"'. c #3205CA",
"]. c #3003CC",
"[. c #823F82",
"{. c #894486",
"}. c #8E4981",
"|. c #8F4981",
" X c #894489",
".X c #964E83",
/* pixels */
"            H }.}.H             ",
"        v.a.6.H.G.6.a.v.        ",
"    U 2.9.(.x l.# k L.,.=.T     ",
"    ).o p 7 { 1 ! ' 6 i k.8.    ",
"  S g | n M 6 d k 8 + _ o.F.C.  ",
"  F.+.2 _.I.9 N.X w ].m.! O F.  ",
".Xe.@.} g.I.9 l.C w ~.I.I.x.w.L ",
"{.d.A u  .7 E 6 , W 6 %.Z ^.Z.G ",
"D u.^.^.B f ^ l * 1 N - { n f.{.",
"I -.V f W.I.9 B.X w q.`.3 5 F.I ",
"  <.= #.W.0.9 j.+ a '.R.` 1 J.  ",
"  V.u. .+.* ~ % w , * ..) . {.  ",
"    6.f.m w ] 9 ( ] & c r.<.    ",
"    Y *.>.!.l h.z.z q.,.F.R     ",
"        b.r.6.a.Z.6.u.b.        ",
"            L F F L             "
};
